<svg width="200" height="50" viewBox="0 0 145 32" fill="none" xmlns="http://www.w3.org/2000/svg">
<path d="M136.94 1.49174C136.824 1.44492 136.707 1.40071 136.59 1.35736C135.045 1.23598 120.35 0.639484 116.36 0.531979C106.552 0.271883 96.744 0.0776787 86.9333 0.0161228C67.5568 -0.103519 48.1958 0.440084 28.8802 1.72322C21.8658 2.18706 14.8583 2.80695 7.93125 3.81958C7.22167 3.98865 6.50181 4.1343 5.79051 4.30336C8.0958 5.70354 10.3548 7.16614 12.3379 8.87063L12.3302 8.96166L12.3559 9.05442L12.3516 9.05962C12.3559 9.05009 12.277 9.11772 12.1596 9.20095C11.9994 9.31192 11.8871 9.38215 11.7131 9.48532C10.2897 10.3324 8.69997 10.9436 7.24824 11.7447C4.87182 13.0599 2.22202 14.1549 0.298089 15.9461C0.213248 16.0241 -0.188678 16.3926 0.106982 16.4689C1.62899 16.8599 7.99724 16.8209 9.37613 17.3679C7.75814 18.052 5.52656 19.1834 5.25575 19.3134C5.17776 19.3499 5.10063 19.3845 5.0235 19.4209C4.49903 19.7287 3.96856 20.0244 3.46894 20.3504C2.9616 20.6781 2.46455 21.0136 1.96749 21.3517C3.09357 21.8112 11.4243 24.4616 12.7458 24.8829C12.0456 25.2367 4.18023 28.8962 2.98388 29.5456C3.21013 29.6089 3.43723 29.6704 3.66518 29.7328C4.43476 29.9444 5.22061 30.0918 6.01418 30.2305C7.5996 30.5062 9.17303 30.7862 10.737 31.1382C12.0645 31.4391 13.3928 31.726 14.7297 32C15.5747 31.8847 16.4214 31.8049 17.2724 31.746L17.2835 31.7321C20.6926 31.4469 24.1086 31.2128 27.5236 31.0194C36.9196 30.4845 46.343 30.084 55.7561 29.8499C75.4719 29.3566 95.1963 29.6089 114.906 30.1611C119.84 30.2998 124.772 30.4438 129.705 30.5938C130.462 30.6189 131.221 30.6414 131.98 30.6657L131.952 30.6761C132.134 30.6657 132.319 30.6501 132.501 30.6388C133.156 30.5929 133.809 30.5755 134.465 30.5608C135.369 30.0406 136.271 29.5126 137.183 29.0028C138.442 28.2962 139.712 27.5983 141.004 26.9342C141.486 26.6863 141.969 26.4374 142.462 26.2016C142.089 26.1019 141.714 25.9987 141.345 25.8921C140.721 25.7343 140.1 25.5739 139.478 25.4127C137.436 24.8777 135.421 24.2995 133.346 23.853C131.748 23.5079 130.131 23.188 128.611 22.6557C131.106 21.7722 138.018 19.4149 137.555 19.082C136.487 18.3147 135.039 18.0624 133.878 17.4364C134.734 17.087 141.145 14.4817 143.513 13.5549C143.265 13.4856 143.017 13.4171 142.767 13.346C141.39 12.9515 133.242 10.2621 130.849 8.95039C131.935 8.59233 143.254 6.36852 144.997 4.90158H145C143.81 4.35191 142.643 3.75889 141.442 3.26558C139.951 2.65349 138.444 2.07348 136.94 1.49174Z" fill="white"/>
<path d="M143.113 5.21982C142.549 5.39495 141.964 5.51633 141.381 5.63077C140.311 5.83885 139.222 5.98884 138.16 6.22553C135.28 6.8697 132.414 7.63177 129.69 8.64355C129.523 8.70597 128.524 9.32326 128.841 9.54607C131.136 11.1465 133.851 12.2372 136.615 13.1683C137.727 13.5429 138.852 13.8897 139.975 14.2373C137.435 15.1338 134.867 15.9843 132.431 17.049C132.167 17.1651 130.803 17.9593 131.226 18.3243C132.156 19.1297 133.476 19.4227 134.625 19.9438C131.999 20.7579 129.226 21.2503 126.824 22.5274C126.597 22.6497 125.502 23.4083 126.063 23.6354C127.776 24.3342 129.616 24.7729 131.449 25.2029C133.472 25.6832 135.418 26.2875 137.394 26.8814C137.926 27.0383 138.461 27.1978 138.993 27.3556C138.185 27.7596 137.386 28.1689 136.59 28.5495C136.085 28.7948 135.575 29.0298 135.063 29.263C133.75 29.2171 132.435 29.1702 131.12 29.1269C126.2 28.9596 121.28 28.7966 116.36 28.6656C106.552 28.4038 96.744 28.2122 86.9333 28.1498C67.5568 28.031 48.1958 28.572 28.8803 29.8534C24.6879 30.1352 20.4981 30.4655 16.3271 30.9025C14.4203 30.5808 12.5513 30.1239 10.6505 29.7737C9.17303 29.4997 7.64846 29.4217 6.1513 29.2361C6.62607 28.9708 7.09913 28.7021 7.5739 28.4359C9.88433 27.1484 12.4896 26.2494 14.7417 24.8891C15.0297 24.7139 16.4454 23.7741 15.7204 23.4585C13.4845 22.4849 10.9736 22.1173 8.60828 21.4168C7.5259 21.0978 6.44953 20.7579 5.35602 20.4631C5.65425 20.3062 10.5682 17.9992 11.3395 16.8721C11.3712 16.8244 4.72871 16.2314 1.49274 15.6254C2.46199 14.8225 3.68405 14.2217 4.85297 13.6512C5.49228 13.3409 6.13245 13.0322 6.76404 12.7158L7.30823 12.4349C7.4265 12.3759 7.54562 12.3221 7.66816 12.2675C9.45926 11.4586 11.3412 10.7035 12.9095 9.6059C13.4442 9.23136 14.3835 8.55252 14.2558 7.88927C14.1213 7.19829 12.7801 6.74572 12.1339 6.46482C11.121 6.02092 10.1209 5.66026 9.17046 5.12879C8.81653 4.93199 8.47459 4.72478 8.13094 4.52018C14.5635 3.75723 21.0457 3.25611 27.5236 2.8859C36.9196 2.35098 46.343 1.95217 55.7562 1.71722C75.4719 1.22477 95.1963 1.47446 114.906 2.03019C119.84 2.16804 124.772 2.30936 129.705 2.46195C131.731 2.52437 133.76 2.59027 135.79 2.64142C136.128 2.7732 136.469 2.90152 136.809 3.02377C138.957 3.80145 141.471 4.02946 143.448 5.10972C143.338 5.14873 143.225 5.18428 143.113 5.21982Z" fill="#FF9955"/>
</svg>
